<mxfile host="app.diagrams.net" agent="Mozilla/5.0 (Windows NT 10.0; Win64; x64) AppleWebKit/537.36 (KHTML, like Gecko) Chrome/137.0.0.0 Safari/537.36" version="27.1.5">
  <diagram name="Page-1" id="3jqBxjU8QRed24UR6xSU">
    <mxGraphModel dx="1665" dy="749" grid="1" gridSize="10" guides="1" tooltips="1" connect="1" arrows="1" fold="1" page="1" pageScale="1" pageWidth="2000" pageHeight="2000" math="0" shadow="0">
      <root>
        <mxCell id="0" />
        <mxCell id="1" parent="0" />
        <mxCell id="W2FJtYAWaFXLXKaA_CzM-1" style="edgeStyle=orthogonalEdgeStyle;rounded=0;orthogonalLoop=1;jettySize=auto;html=1;exitX=0.5;exitY=1;exitDx=0;exitDy=0;entryX=0.5;entryY=0;entryDx=0;entryDy=0;strokeColor=light-dark(#000000,#3333FF);" edge="1" parent="1" source="W2FJtYAWaFXLXKaA_CzM-2" target="W2FJtYAWaFXLXKaA_CzM-5">
          <mxGeometry relative="1" as="geometry" />
        </mxCell>
        <mxCell id="W2FJtYAWaFXLXKaA_CzM-2" value="Ascundere mesaj/fisier&lt;div&gt;in Audio&lt;/div&gt;" style="rounded=0;whiteSpace=wrap;html=1;" vertex="1" parent="1">
          <mxGeometry x="670" y="80" width="140" height="70" as="geometry" />
        </mxCell>
        <mxCell id="W2FJtYAWaFXLXKaA_CzM-3" style="edgeStyle=orthogonalEdgeStyle;rounded=0;orthogonalLoop=1;jettySize=auto;html=1;exitX=1;exitY=0.5;exitDx=0;exitDy=0;strokeColor=light-dark(#000000,#3333FF);" edge="1" parent="1" source="W2FJtYAWaFXLXKaA_CzM-5">
          <mxGeometry relative="1" as="geometry">
            <mxPoint x="890" y="270" as="targetPoint" />
          </mxGeometry>
        </mxCell>
        <mxCell id="W2FJtYAWaFXLXKaA_CzM-4" style="edgeStyle=orthogonalEdgeStyle;rounded=0;orthogonalLoop=1;jettySize=auto;html=1;exitX=0.5;exitY=1;exitDx=0;exitDy=0;entryX=0.5;entryY=0;entryDx=0;entryDy=0;strokeColor=light-dark(#000000,#3333FF);" edge="1" parent="1" source="W2FJtYAWaFXLXKaA_CzM-5" target="W2FJtYAWaFXLXKaA_CzM-9">
          <mxGeometry relative="1" as="geometry" />
        </mxCell>
        <mxCell id="W2FJtYAWaFXLXKaA_CzM-5" value="Se gaseste campul &quot;RIFF&quot;" style="rhombus;whiteSpace=wrap;html=1;" vertex="1" parent="1">
          <mxGeometry x="675" y="210" width="130" height="120" as="geometry" />
        </mxCell>
        <mxCell id="W2FJtYAWaFXLXKaA_CzM-6" value="&lt;font style=&quot;color: light-dark(rgb(0, 0, 0), rgb(153, 153, 255));&quot;&gt;NU&lt;/font&gt;" style="text;html=1;align=center;verticalAlign=middle;resizable=0;points=[];autosize=1;strokeColor=none;fillColor=none;" vertex="1" parent="1">
          <mxGeometry x="820" y="240" width="40" height="30" as="geometry" />
        </mxCell>
        <mxCell id="W2FJtYAWaFXLXKaA_CzM-7" value="EROARE&lt;br&gt;Fisier cover invalid" style="rounded=0;whiteSpace=wrap;html=1;" vertex="1" parent="1">
          <mxGeometry x="890" y="240" width="130" height="60" as="geometry" />
        </mxCell>
        <mxCell id="W2FJtYAWaFXLXKaA_CzM-8" style="edgeStyle=orthogonalEdgeStyle;rounded=0;orthogonalLoop=1;jettySize=auto;html=1;exitX=1;exitY=0.5;exitDx=0;exitDy=0;entryX=0;entryY=0.5;entryDx=0;entryDy=0;strokeColor=light-dark(#000000,#3333FF);" edge="1" parent="1" source="W2FJtYAWaFXLXKaA_CzM-9" target="W2FJtYAWaFXLXKaA_CzM-11">
          <mxGeometry relative="1" as="geometry" />
        </mxCell>
        <mxCell id="W2FJtYAWaFXLXKaA_CzM-15" style="edgeStyle=orthogonalEdgeStyle;rounded=0;orthogonalLoop=1;jettySize=auto;html=1;exitX=0.5;exitY=1;exitDx=0;exitDy=0;entryX=0.5;entryY=0;entryDx=0;entryDy=0;strokeColor=light-dark(#000000,#3333FF);" edge="1" parent="1" source="W2FJtYAWaFXLXKaA_CzM-9" target="W2FJtYAWaFXLXKaA_CzM-14">
          <mxGeometry relative="1" as="geometry" />
        </mxCell>
        <mxCell id="W2FJtYAWaFXLXKaA_CzM-9" value="Se gaseste campul &quot;WAVE&quot;" style="rhombus;whiteSpace=wrap;html=1;" vertex="1" parent="1">
          <mxGeometry x="675" y="380" width="130" height="120" as="geometry" />
        </mxCell>
        <mxCell id="W2FJtYAWaFXLXKaA_CzM-10" value="&lt;font style=&quot;color: light-dark(rgb(0, 0, 0), rgb(153, 153, 255));&quot;&gt;DA&lt;/font&gt;" style="text;html=1;align=center;verticalAlign=middle;resizable=0;points=[];autosize=1;strokeColor=none;fillColor=none;" vertex="1" parent="1">
          <mxGeometry x="750" y="330" width="40" height="30" as="geometry" />
        </mxCell>
        <mxCell id="W2FJtYAWaFXLXKaA_CzM-11" value="EROARE&lt;br&gt;Fisier cover invalid" style="rounded=0;whiteSpace=wrap;html=1;" vertex="1" parent="1">
          <mxGeometry x="890" y="410" width="130" height="60" as="geometry" />
        </mxCell>
        <mxCell id="W2FJtYAWaFXLXKaA_CzM-12" value="&lt;font style=&quot;color: light-dark(rgb(0, 0, 0), rgb(153, 153, 255));&quot;&gt;NU&lt;/font&gt;" style="text;html=1;align=center;verticalAlign=middle;resizable=0;points=[];autosize=1;strokeColor=none;fillColor=none;" vertex="1" parent="1">
          <mxGeometry x="820" y="400" width="40" height="30" as="geometry" />
        </mxCell>
        <mxCell id="W2FJtYAWaFXLXKaA_CzM-17" style="edgeStyle=orthogonalEdgeStyle;rounded=0;orthogonalLoop=1;jettySize=auto;html=1;exitX=0;exitY=0.5;exitDx=0;exitDy=0;strokeColor=light-dark(#000000,#3333FF);" edge="1" parent="1" source="W2FJtYAWaFXLXKaA_CzM-14" target="W2FJtYAWaFXLXKaA_CzM-34">
          <mxGeometry relative="1" as="geometry">
            <mxPoint x="560" y="600" as="targetPoint" />
          </mxGeometry>
        </mxCell>
        <mxCell id="W2FJtYAWaFXLXKaA_CzM-19" style="edgeStyle=orthogonalEdgeStyle;rounded=0;orthogonalLoop=1;jettySize=auto;html=1;exitX=1;exitY=0.5;exitDx=0;exitDy=0;entryX=0.5;entryY=0;entryDx=0;entryDy=0;strokeColor=light-dark(#000000,#3333FF);" edge="1" parent="1" source="W2FJtYAWaFXLXKaA_CzM-14" target="W2FJtYAWaFXLXKaA_CzM-22">
          <mxGeometry relative="1" as="geometry">
            <mxPoint x="900" y="600" as="targetPoint" />
          </mxGeometry>
        </mxCell>
        <mxCell id="W2FJtYAWaFXLXKaA_CzM-14" value="Este selectat mod mesaj" style="rhombus;whiteSpace=wrap;html=1;" vertex="1" parent="1">
          <mxGeometry x="675" y="540" width="130" height="120" as="geometry" />
        </mxCell>
        <mxCell id="W2FJtYAWaFXLXKaA_CzM-16" value="&lt;font style=&quot;color: light-dark(rgb(0, 0, 0), rgb(153, 153, 255));&quot;&gt;DA&lt;/font&gt;" style="text;html=1;align=center;verticalAlign=middle;resizable=0;points=[];autosize=1;strokeColor=none;fillColor=none;" vertex="1" parent="1">
          <mxGeometry x="740" y="500" width="40" height="30" as="geometry" />
        </mxCell>
        <mxCell id="W2FJtYAWaFXLXKaA_CzM-18" value="&lt;font style=&quot;color: light-dark(rgb(0, 0, 0), rgb(153, 153, 255));&quot;&gt;DA&lt;/font&gt;" style="text;html=1;align=center;verticalAlign=middle;resizable=0;points=[];autosize=1;strokeColor=none;fillColor=none;" vertex="1" parent="1">
          <mxGeometry x="630" y="570" width="40" height="30" as="geometry" />
        </mxCell>
        <mxCell id="W2FJtYAWaFXLXKaA_CzM-20" value="&lt;font style=&quot;color: light-dark(rgb(0, 0, 0), rgb(153, 153, 255));&quot;&gt;NU&lt;/font&gt;" style="text;html=1;align=center;verticalAlign=middle;resizable=0;points=[];autosize=1;strokeColor=none;fillColor=none;" vertex="1" parent="1">
          <mxGeometry x="820" y="570" width="40" height="30" as="geometry" />
        </mxCell>
        <mxCell id="W2FJtYAWaFXLXKaA_CzM-21" style="edgeStyle=orthogonalEdgeStyle;rounded=0;orthogonalLoop=1;jettySize=auto;html=1;exitX=0.5;exitY=1;exitDx=0;exitDy=0;entryX=0.5;entryY=0;entryDx=0;entryDy=0;strokeColor=light-dark(#000000,#3333FF);" edge="1" parent="1" source="W2FJtYAWaFXLXKaA_CzM-22">
          <mxGeometry relative="1" as="geometry">
            <mxPoint x="915" y="780" as="targetPoint" />
          </mxGeometry>
        </mxCell>
        <mxCell id="W2FJtYAWaFXLXKaA_CzM-22" value="Codifica &quot;STGF&quot;" style="rounded=0;whiteSpace=wrap;html=1;" vertex="1" parent="1">
          <mxGeometry x="855" y="670" width="120" height="60" as="geometry" />
        </mxCell>
        <mxCell id="W2FJtYAWaFXLXKaA_CzM-31" style="edgeStyle=orthogonalEdgeStyle;rounded=0;orthogonalLoop=1;jettySize=auto;html=1;exitX=0.5;exitY=1;exitDx=0;exitDy=0;entryX=0.5;entryY=0;entryDx=0;entryDy=0;strokeColor=light-dark(#000000,#3333FF);" edge="1" parent="1" source="W2FJtYAWaFXLXKaA_CzM-23" target="W2FJtYAWaFXLXKaA_CzM-26">
          <mxGeometry relative="1" as="geometry" />
        </mxCell>
        <mxCell id="W2FJtYAWaFXLXKaA_CzM-23" value="Codifica metoda folosita intr-un byte" style="rounded=0;whiteSpace=wrap;html=1;" vertex="1" parent="1">
          <mxGeometry x="850" y="780" width="135" height="70" as="geometry" />
        </mxCell>
        <mxCell id="W2FJtYAWaFXLXKaA_CzM-24" style="edgeStyle=orthogonalEdgeStyle;rounded=0;orthogonalLoop=1;jettySize=auto;html=1;exitX=1;exitY=0.5;exitDx=0;exitDy=0;entryX=0.5;entryY=0;entryDx=0;entryDy=0;strokeColor=light-dark(#000000,#3333FF);" edge="1" parent="1" source="W2FJtYAWaFXLXKaA_CzM-26" target="W2FJtYAWaFXLXKaA_CzM-30">
          <mxGeometry relative="1" as="geometry">
            <mxPoint x="1050" y="975" as="targetPoint" />
          </mxGeometry>
        </mxCell>
        <mxCell id="W2FJtYAWaFXLXKaA_CzM-25" style="edgeStyle=orthogonalEdgeStyle;rounded=0;orthogonalLoop=1;jettySize=auto;html=1;exitX=0;exitY=0.5;exitDx=0;exitDy=0;entryX=0.5;entryY=0;entryDx=0;entryDy=0;strokeColor=light-dark(#000000,#3333FF);" edge="1" parent="1" source="W2FJtYAWaFXLXKaA_CzM-26" target="W2FJtYAWaFXLXKaA_CzM-29">
          <mxGeometry relative="1" as="geometry">
            <mxPoint x="810" y="975" as="targetPoint" />
          </mxGeometry>
        </mxCell>
        <mxCell id="W2FJtYAWaFXLXKaA_CzM-26" value="Exista cheie shuffle" style="rhombus;whiteSpace=wrap;html=1;" vertex="1" parent="1">
          <mxGeometry x="847.5" y="920" width="140" height="130" as="geometry" />
        </mxCell>
        <mxCell id="W2FJtYAWaFXLXKaA_CzM-27" value="&lt;font style=&quot;color: light-dark(rgb(0, 0, 0), rgb(153, 153, 255));&quot;&gt;DA&lt;/font&gt;" style="text;html=1;align=center;verticalAlign=middle;resizable=0;points=[];autosize=1;strokeColor=none;fillColor=none;" vertex="1" parent="1">
          <mxGeometry x="980" y="950" width="40" height="30" as="geometry" />
        </mxCell>
        <mxCell id="W2FJtYAWaFXLXKaA_CzM-28" value="&lt;font style=&quot;color: light-dark(rgb(0, 0, 0), rgb(153, 153, 255));&quot;&gt;NU&lt;/font&gt;" style="text;html=1;align=center;verticalAlign=middle;resizable=0;points=[];autosize=1;strokeColor=none;fillColor=none;" vertex="1" parent="1">
          <mxGeometry x="820" y="950" width="40" height="30" as="geometry" />
        </mxCell>
        <mxCell id="W2FJtYAWaFXLXKaA_CzM-29" value="Ascundere fisier folosind LSB" style="rounded=0;whiteSpace=wrap;html=1;" vertex="1" parent="1">
          <mxGeometry x="760" y="1070" width="130" height="60" as="geometry" />
        </mxCell>
        <mxCell id="W2FJtYAWaFXLXKaA_CzM-30" value="Ascundere fisier folosind LSB + shuffle" style="rounded=0;whiteSpace=wrap;html=1;" vertex="1" parent="1">
          <mxGeometry x="945" y="1070" width="150" height="60" as="geometry" />
        </mxCell>
        <mxCell id="W2FJtYAWaFXLXKaA_CzM-32" style="edgeStyle=orthogonalEdgeStyle;rounded=0;orthogonalLoop=1;jettySize=auto;html=1;exitX=1;exitY=0.5;exitDx=0;exitDy=0;entryX=0.5;entryY=0;entryDx=0;entryDy=0;strokeColor=light-dark(#000000,#3333FF);" edge="1" parent="1" source="W2FJtYAWaFXLXKaA_CzM-34" target="W2FJtYAWaFXLXKaA_CzM-38">
          <mxGeometry relative="1" as="geometry">
            <mxPoint x="680" y="975" as="targetPoint" />
          </mxGeometry>
        </mxCell>
        <mxCell id="W2FJtYAWaFXLXKaA_CzM-33" style="edgeStyle=orthogonalEdgeStyle;rounded=0;orthogonalLoop=1;jettySize=auto;html=1;exitX=0;exitY=0.5;exitDx=0;exitDy=0;entryX=0.5;entryY=0;entryDx=0;entryDy=0;strokeColor=light-dark(#000000,#3333FF);" edge="1" parent="1" source="W2FJtYAWaFXLXKaA_CzM-34" target="W2FJtYAWaFXLXKaA_CzM-37">
          <mxGeometry relative="1" as="geometry">
            <mxPoint x="440" y="975" as="targetPoint" />
          </mxGeometry>
        </mxCell>
        <mxCell id="W2FJtYAWaFXLXKaA_CzM-34" value="Exista cheie shuffle" style="rhombus;whiteSpace=wrap;html=1;" vertex="1" parent="1">
          <mxGeometry x="477.5" y="920" width="140" height="130" as="geometry" />
        </mxCell>
        <mxCell id="W2FJtYAWaFXLXKaA_CzM-35" value="&lt;font style=&quot;color: light-dark(rgb(0, 0, 0), rgb(153, 153, 255));&quot;&gt;DA&lt;/font&gt;" style="text;html=1;align=center;verticalAlign=middle;resizable=0;points=[];autosize=1;strokeColor=none;fillColor=none;" vertex="1" parent="1">
          <mxGeometry x="610" y="950" width="40" height="30" as="geometry" />
        </mxCell>
        <mxCell id="W2FJtYAWaFXLXKaA_CzM-36" value="&lt;font style=&quot;color: light-dark(rgb(0, 0, 0), rgb(153, 153, 255));&quot;&gt;NU&lt;/font&gt;" style="text;html=1;align=center;verticalAlign=middle;resizable=0;points=[];autosize=1;strokeColor=none;fillColor=none;" vertex="1" parent="1">
          <mxGeometry x="450" y="950" width="40" height="30" as="geometry" />
        </mxCell>
        <mxCell id="W2FJtYAWaFXLXKaA_CzM-37" value="Ascundere mesajfolosind LSB" style="rounded=0;whiteSpace=wrap;html=1;" vertex="1" parent="1">
          <mxGeometry x="390" y="1070" width="130" height="60" as="geometry" />
        </mxCell>
        <mxCell id="W2FJtYAWaFXLXKaA_CzM-38" value="Ascundere mesaj folosind LSB + shuffle" style="rounded=0;whiteSpace=wrap;html=1;" vertex="1" parent="1">
          <mxGeometry x="575" y="1070" width="150" height="60" as="geometry" />
        </mxCell>
      </root>
    </mxGraphModel>
  </diagram>
</mxfile>
